<svg width="14" height="25" viewBox="0 0 14 25" fill="none" xmlns="http://www.w3.org/2000/svg">
<path d="M12.4932 24.9873C12.3701 24.9873 12.2482 24.9631 12.1344 24.916C12.0206 24.869 11.9172 24.7999 11.8301 24.7129L0.274487 13.1566C0.0987334 12.9808 0 12.7424 0 12.4938C0 12.2452 0.0987334 12.0068 0.274487 11.831L11.8301 0.274767C11.9172 0.187684 12.0205 0.118598 12.1342 0.0714536C12.248 0.024309 12.3699 2.90473e-05 12.493 2.60469e-08C12.6161 -2.89952e-05 12.7381 0.0241936 12.8518 0.0712846C12.9656 0.118376 13.069 0.187413 13.1561 0.274455C13.2431 0.361496 13.3122 0.464838 13.3594 0.578579C13.4065 0.69232 13.4308 0.814234 13.4308 0.937358C13.4308 1.06048 13.4066 1.18241 13.3595 1.29617C13.3124 1.40994 13.2434 1.51331 13.1564 1.60039L2.26324 12.4935L13.1564 23.3866C13.2876 23.5178 13.3769 23.6848 13.4131 23.8668C13.4493 24.0487 13.4308 24.2372 13.3598 24.4086C13.2888 24.5799 13.1686 24.7264 13.0143 24.8294C12.8601 24.9324 12.6787 24.9874 12.4932 24.9873Z" fill="black"/>
</svg>
