<svg width="30" height="30" viewBox="0 0 30 30" fill="none" xmlns="http://www.w3.org/2000/svg">
<mask id="path-1-inside-1_4_228" fill="white">
<path d="M20.625 5.625V3.75H19.6875V5.625H10.3125V3.75H9.375V5.625H3.75V26.25H26.25V5.625H20.625ZM25.3125 25.3125H4.6875V11.25H25.3125V25.3125ZM25.3125 10.3125H4.6875V6.5625H9.375V8.4375H10.3125V6.5625H19.6875V8.4375H20.625V6.5625H25.3125V10.3125Z"/>
</mask>
<path d="M20.625 5.625V3.75H19.6875V5.625H10.3125V3.75H9.375V5.625H3.75V26.25H26.25V5.625H20.625ZM25.3125 25.3125H4.6875V11.25H25.3125V25.3125ZM25.3125 10.3125H4.6875V6.5625H9.375V8.4375H10.3125V6.5625H19.6875V8.4375H20.625V6.5625H25.3125V10.3125Z" fill="black"/>
<path d="M20.625 5.625H-124.375V150.625H20.625V5.625ZM20.625 3.75H165.625V-141.25H20.625V3.75ZM19.6875 3.75V-141.25H-125.312V3.75H19.6875ZM19.6875 5.625V150.625H164.688V5.625H19.6875ZM10.3125 5.625H-134.688V150.625H10.3125V5.625ZM10.3125 3.75H155.312V-141.25H10.3125V3.75ZM9.375 3.75V-141.25H-135.625V3.75H9.375ZM9.375 5.625V150.625H154.375V5.625H9.375ZM3.75 5.625V-139.375H-141.25V5.625H3.75ZM3.75 26.25H-141.25V171.25H3.75V26.25ZM26.25 26.25V171.25H171.25V26.25H26.25ZM26.25 5.625H171.25V-139.375H26.25V5.625ZM25.3125 25.3125V170.312H170.312V25.3125H25.3125ZM4.6875 25.3125H-140.312V170.312H4.6875V25.3125ZM4.6875 11.25V-133.75H-140.312V11.25H4.6875ZM25.3125 11.25H170.312V-133.75H25.3125V11.25ZM25.3125 10.3125V155.312H170.312V10.3125H25.3125ZM4.6875 10.3125H-140.312V155.312H4.6875V10.3125ZM4.6875 6.5625V-138.438H-140.312V6.5625H4.6875ZM9.375 6.5625H154.375V-138.438H9.375V6.5625ZM9.375 8.4375H-135.625V153.438H9.375V8.4375ZM10.3125 8.4375V153.438H155.312V8.4375H10.3125ZM10.3125 6.5625V-138.438H-134.688V6.5625H10.3125ZM19.6875 6.5625H164.688V-138.438H19.6875V6.5625ZM19.6875 8.4375H-125.312V153.438H19.6875V8.4375ZM20.625 8.4375V153.438H165.625V8.4375H20.625ZM20.625 6.5625V-138.438H-124.375V6.5625H20.625ZM25.3125 6.5625H170.312V-138.438H25.3125V6.5625ZM165.625 5.625V3.75H-124.375V5.625H165.625ZM20.625 -141.25H19.6875V148.75H20.625V-141.25ZM-125.312 3.75V5.625H164.688V3.75H-125.312ZM19.6875 -139.375H10.3125V150.625H19.6875V-139.375ZM155.312 5.625V3.75H-134.688V5.625H155.312ZM10.3125 -141.25H9.375V148.75H10.3125V-141.25ZM-135.625 3.75V5.625H154.375V3.75H-135.625ZM9.375 -139.375H3.75V150.625H9.375V-139.375ZM-141.25 5.625V26.25H148.75V5.625H-141.25ZM3.75 171.25H26.25V-118.75H3.75V171.25ZM171.25 26.25V5.625H-118.75V26.25H171.25ZM26.25 -139.375H20.625V150.625H26.25V-139.375ZM25.3125 -119.688H4.6875V170.312H25.3125V-119.688ZM149.688 25.3125V11.25H-140.312V25.3125H149.688ZM4.6875 156.25H25.3125V-133.75H4.6875V156.25ZM-119.688 11.25V25.3125H170.312V11.25H-119.688ZM25.3125 -134.688H4.6875V155.312H25.3125V-134.688ZM149.688 10.3125V6.5625H-140.312V10.3125H149.688ZM4.6875 151.562H9.375V-138.438H4.6875V151.562ZM-135.625 6.5625V8.4375H154.375V6.5625H-135.625ZM9.375 153.438H10.3125V-136.562H9.375V153.438ZM155.312 8.4375V6.5625H-134.688V8.4375H155.312ZM10.3125 151.562H19.6875V-138.438H10.3125V151.562ZM-125.312 6.5625V8.4375H164.688V6.5625H-125.312ZM19.6875 153.438H20.625V-136.562H19.6875V153.438ZM165.625 8.4375V6.5625H-124.375V8.4375H165.625ZM20.625 151.562H25.3125V-138.438H20.625V151.562ZM-119.688 6.5625V10.3125H170.312V6.5625H-119.688Z" fill="black" mask="url(#path-1-inside-1_4_228)"/>
</svg>
