<svg width="14" height="25" viewBox="0 0 14 25" fill="none" xmlns="http://www.w3.org/2000/svg">
<path d="M1.3787 24.9873C1.5031 24.9873 1.62629 24.9631 1.74124 24.916C1.85618 24.869 1.96063 24.7999 2.04862 24.7129L13.7227 13.1566C13.9003 12.9808 14 12.7424 14 12.4938C14 12.2452 13.9003 12.0068 13.7227 11.831L2.04862 0.274767C1.96069 0.187684 1.85629 0.118598 1.74138 0.0714536C1.62648 0.024309 1.50331 2.90473e-05 1.37893 2.60469e-08C1.25454 -2.89952e-05 1.13137 0.0241936 1.01644 0.0712846C0.901506 0.118376 0.797071 0.187413 0.709095 0.274455C0.62112 0.361496 0.551327 0.464838 0.5037 0.578579C0.456072 0.69232 0.431541 0.814234 0.431512 0.937358C0.431483 1.06048 0.455954 1.18241 0.503528 1.29617C0.551102 1.40994 0.620847 1.51331 0.708781 1.60039L11.7136 12.4935L0.708781 23.3866C0.576239 23.5178 0.485966 23.6848 0.449386 23.8668C0.412806 24.0487 0.431562 24.2372 0.503281 24.4086C0.575001 24.5799 0.696463 24.7264 0.852293 24.8294C1.00812 24.9324 1.19132 24.9874 1.3787 24.9873Z" fill="black"/>
</svg>
