<svg width="30" height="28" viewBox="0 0 30 28" fill="none" xmlns="http://www.w3.org/2000/svg">
<path d="M10.0055 27H7.00368C3.68794 27 1 24.312 1 20.9963V11.5519C1 9.45256 2.09659 7.50569 3.89196 6.41758L11.3966 1.86935C13.3092 0.710218 15.7074 0.710218 17.62 1.86935L25.1246 6.41758C26.92 7.50569 28.0165 9.45256 28.0165 11.5519V20.9963C28.0165 24.312 25.3285 27 22.0129 27H19.011M10.0055 27V20.9963C10.0055 18.5095 12.0214 16.4936 14.5083 16.4936C16.9951 16.4936 19.011 18.5095 19.011 20.9963V27M10.0055 27H19.011" stroke="black" stroke-width="2" stroke-linecap="round" stroke-linejoin="round"/>
</svg>
