<svg width="25" height="30" viewBox="0 0 25 30" fill="none" xmlns="http://www.w3.org/2000/svg">
<path d="M23.9999 2V28C23.9999 28.2652 23.8946 28.5196 23.707 28.7071C23.5195 28.8946 23.2652 29 22.9999 29H2.99994C2.73472 29 2.48037 28.8946 2.29283 28.7071C2.1053 28.5196 1.99994 28.2652 1.99994 28V26H3.99994V27H21.9999V3H3.99994V6H1.99994V2C1.99994 1.73478 2.1053 1.48043 2.29283 1.29289C2.48037 1.10536 2.73472 1 2.99994 1H22.9999C23.2652 1 23.5195 1.10536 23.707 1.29289C23.8946 1.48043 23.9999 1.73478 23.9999 2ZM7.70994 19.29L4.40994 16H14.9999V14H4.40994L7.70994 10.71L6.28994 9.29L1.28994 14.29C1.19621 14.383 1.12182 14.4936 1.07105 14.6154C1.02028 14.7373 0.994141 14.868 0.994141 15C0.994141 15.132 1.02028 15.2627 1.07105 15.3846C1.12182 15.5064 1.19621 15.617 1.28994 15.71L6.28994 20.71L7.70994 19.29Z" fill="black" stroke="black"/>
</svg>
