<svg width="35" height="36" viewBox="0 0 35 36" fill="none" xmlns="http://www.w3.org/2000/svg">
<path d="M18.0227 22.7619C17.041 22.8588 16.0532 22.65 15.1947 22.1639C14.3363 21.6778 13.649 20.9382 13.2271 20.0464C12.8052 19.1547 12.6692 18.1543 12.8378 17.1822C13.0064 16.2102 13.4713 15.314 14.1689 14.6165C14.8665 13.9189 15.7627 13.4539 16.7347 13.2853C17.7067 13.1167 18.7071 13.2527 19.5989 13.6746C20.4907 14.0966 21.2302 14.7838 21.7163 15.6423C22.2024 16.5008 22.4113 17.4885 22.3143 18.4703C22.2038 19.5709 21.7161 20.5994 20.934 21.3815C20.1518 22.1637 19.1233 22.6513 18.0227 22.7619ZM29.5442 18C29.5412 17.4799 29.503 16.9606 29.4298 16.4456L32.81 13.7944C32.9572 13.6724 33.0564 13.5021 33.0899 13.3139C33.1235 13.1257 33.0892 12.9317 32.9932 12.7664L29.7955 7.23365C29.6983 7.0699 29.5465 6.94569 29.3668 6.88291C29.1871 6.82013 28.991 6.8228 28.813 6.89047L25.456 8.24224C25.2709 8.31595 25.0704 8.34258 24.8724 8.31975C24.6745 8.29691 24.4853 8.22533 24.3218 8.1114C23.8095 7.7586 23.2711 7.44518 22.7113 7.17383C22.5354 7.0883 22.3831 6.96075 22.2681 6.80245C22.1531 6.64415 22.0789 6.45997 22.0519 6.26617L21.5487 2.68561C21.5157 2.49651 21.418 2.32476 21.2723 2.19971C21.1267 2.07466 20.9421 2.00406 20.7502 2H14.3547C14.166 2.00327 13.9839 2.07073 13.8387 2.19128C13.6934 2.31183 13.5935 2.47827 13.5555 2.66318L13.053 6.23851C13.0248 6.43444 12.9486 6.62037 12.8312 6.77977C12.7138 6.93916 12.5589 7.06708 12.3801 7.15215C11.821 7.42202 11.2845 7.7363 10.7756 8.09196C10.6127 8.20532 10.4242 8.27636 10.2269 8.29868C10.0297 8.321 9.83005 8.29389 9.64592 8.21981L6.28966 6.86879C6.1118 6.80106 5.91574 6.79827 5.73602 6.86091C5.5563 6.92355 5.40446 7.0476 5.30723 7.21122L2.10947 12.7439C2.01333 12.9092 1.97898 13.1033 2.01252 13.2915C2.04607 13.4798 2.14533 13.65 2.29265 13.772L5.14947 16.015C5.30599 16.1392 5.429 16.3006 5.50733 16.4844C5.58567 16.6682 5.61686 16.8687 5.59807 17.0677C5.57116 17.3794 5.55471 17.6905 5.55471 18.0022C5.55471 18.314 5.57041 18.6206 5.59807 18.9256C5.61481 19.1233 5.58209 19.3221 5.50287 19.5041C5.42364 19.686 5.3004 19.8454 5.14424 19.9679L2.28891 22.2108C2.14399 22.3334 2.04681 22.503 2.01441 22.69C1.98201 22.877 2.01646 23.0695 2.11172 23.2336L5.30947 28.7664C5.40659 28.9301 5.55838 29.0543 5.73811 29.1171C5.91784 29.1799 6.11396 29.1772 6.2919 29.1095L9.64891 27.7578C9.83404 27.684 10.0346 27.6574 10.2325 27.6803C10.4305 27.7031 10.6196 27.7747 10.7831 27.8886C11.2955 28.2414 11.8338 28.5548 12.3936 28.8262C12.5696 28.9117 12.7218 29.0392 12.8368 29.1975C12.9518 29.3558 13.0261 29.54 13.053 29.7338L13.5562 33.3144C13.5893 33.5035 13.6869 33.6752 13.8326 33.8003C13.9782 33.9253 14.1628 33.9959 14.3547 34H20.7502C20.939 33.9967 21.121 33.9293 21.2663 33.8087C21.4116 33.6882 21.5114 33.5217 21.5495 33.3368L22.0519 29.7615C22.0801 29.5656 22.1563 29.3796 22.2737 29.2202C22.3911 29.0608 22.5461 28.9329 22.7248 28.8479C23.2839 28.578 23.8204 28.2637 24.3293 27.908C24.4922 27.7947 24.6808 27.7236 24.878 27.7013C25.0752 27.679 25.2749 27.7061 25.459 27.7802L28.8153 29.1312C28.9931 29.1989 29.1892 29.2017 29.3689 29.1391C29.5486 29.0765 29.7005 28.9524 29.7977 28.7888L32.9955 23.2561C33.0916 23.0908 33.126 22.8967 33.0924 22.7085C33.0589 22.5202 32.9596 22.35 32.8123 22.228L29.9555 19.985C29.7983 19.8612 29.6745 19.7 29.5955 19.5162C29.5165 19.3323 29.4848 19.1316 29.5031 18.9323C29.5278 18.6228 29.5442 18.3118 29.5442 18Z" stroke="black" stroke-width="3" stroke-linecap="round" stroke-linejoin="round"/>
</svg>
